<?xml version="1.0" encoding="UTF-8" standalone="no"?>
<!-- Generator: Adobe Illustrator 13.0.0, SVG Export Plug-In  -->
<svg
   xmlns:dc="http://purl.org/dc/elements/1.1/"
   xmlns:cc="http://creativecommons.org/ns#"
   xmlns:rdf="http://www.w3.org/1999/02/22-rdf-syntax-ns#"
   xmlns:svg="http://www.w3.org/2000/svg"
   xmlns="http://www.w3.org/2000/svg"
   xmlns:sodipodi="http://sodipodi.sourceforge.net/DTD/sodipodi-0.dtd"
   xmlns:inkscape="http://www.inkscape.org/namespaces/inkscape"
   version="1.1"
   baseProfile="tiny"
   fill="white"
   x="0px"
   y="0px"
   width="247px"
   height="240px"
   viewBox="-0.251 -0.25 247 240"
   xml:space="preserve"
   id="svg2"
   sodipodi:version="0.32"
   inkscape:version="0.46"
   sodipodi:docname="Bismillah2.svg"
   inkscape:output_extension="org.inkscape.output.svg.inkscape"><metadata
   id="metadata41"><rdf:RDF><cc:Work
       rdf:about=""><dc:format>image/svg+xml</dc:format><dc:type
         rdf:resource="http://purl.org/dc/dcmitype/StillImage" /></cc:Work></rdf:RDF></metadata><sodipodi:namedview
   inkscape:window-height="743"
   inkscape:window-width="1279"
   inkscape:pageshadow="2"
   inkscape:pageopacity="0.0"
   guidetolerance="10.0"
   gridtolerance="10.0"
   objecttolerance="10.0"
   borderopacity="1.0"
   bordercolor="#666666"
   pagecolor="#ffffff"
   id="base"
   showgrid="false"
   inkscape:zoom="2.9109229"
   inkscape:cx="83.586988"
   inkscape:cy="178.1479"
   inkscape:window-x="0"
   inkscape:window-y="28"
   inkscape:current-layer="svg2" />
<defs
   id="defs4"><inkscape:perspective
   sodipodi:type="inkscape:persp3d"
   inkscape:vp_x="0 : 120 : 1"
   inkscape:vp_y="0 : 1000 : 0"
   inkscape:vp_z="247 : 120 : 1"
   inkscape:persp3d-origin="123.5 : 80 : 1"
   id="perspective43" />
</defs>
















<path
   id="path8"
   d="M 78.923,210.398 C 70.043,211.658 63.383,203.738 63.083,196.717 C 62.804,190.148 64.233,185.867 65.724,181.357 C 61.494,182.898 58.224,185.459 53.963,186.398 C 44.434,188.499 35.123,183.377 33.083,175.837 C 31.003,168.148 33.703,160.985 36.443,155.196 C 32.943,156.596 27.733,158.016 23.483,156.395 C 14.813,153.096 10.873,136.606 21.083,123.755 C 12.623,122.346 4.543,105.375 23.483,84.155 C 15.333,96.965 11.803,113.985 20.123,116.075 C 28.283,118.125 33.304,112.295 37.403,108.635 C 45.423,101.465 54.983,92.565 64.523,88.955 C 66.183,88.355 66.873,88.265 68.123,87.995 C 67.203,83.375 65.983,77.215 67.163,71.435 C 68.113,66.775 73.443,58.335 76.283,57.755 C 77.223,57.565 79.890587,59.13021 81.804,61.115 C 82.815186,62.163907 83.918101,63.256255 85.163,64.235 C 84.472798,58.257186 81.623,34.575 79.163,30.875 C 80.434,27.825 81.804,24.875 83.483,22.235 C 86.375713,30.145202 88.55968,36.521883 92.362,45.515 C 90.233,45.645 90.134713,43.863745 88.282,43.595 C 89.355117,49.103745 89.842,54.805 90.442,59.195 C 90.921993,62.72006 91.432444,65.58147 92.015797,69.064887 C 96.069648,74.259261 102.47709,74.328494 107.482,73.595 C 105.642,60.955 103.881,46.985 101.961,33.995 C 101.461,30.605 100.432,26.765 99.081,24.395 C 100.682,21.755 102.001,18.835 103.4,15.995 C 106.60841,24.019243 108.06064,29.296187 112.281,39.275 C 110.80437,38.466255 110.52854,37.672287 108.44,37.355 C 109.089,46.735 111.541,58.495 112.52,68.075 C 112.81,70.915 112.36,72.765 114.44,73.595 C 119.589,72.825 126.621,71.855 131.241,69.755 C 130.22,64.005 129.81371,61.077065 128.6,53.675 C 124.85,52.545 120.41583,51.977713 116.6,51.035 C 117.48,48.315 119.31,46.545 120.201,43.835 C 122.75491,42.337713 124.83954,41.577713 127.4,41.435 C 127.07729,36.610628 126.671,31.965 125.72,27.515 C 125.379,25.945 123.749,24.215 123.799,22.715 C 125.07814,20.0598 125.92227,16.959747 127.64,14.555 C 131.58605,23.452735 133.36157,27.758389 137.72,37.115 C 135.949,36.276255 134.86417,35.303745 133.64,35.195 C 133.70729,37.285 134.089,39.845 134.36,41.915 C 142.69,43.985 150.501,47.845 158.6,49.355 C 158.21543,43.321883 157.8702,40.79832 156.919,33.275 C 156.039,32.475 155.85,30.985 155.239,29.915 C 156.879,27.155 157.999,23.875 160.039,21.515 C 162.768,29.115 165.35668,36.417915 168.438,44.555 C 166.9967,43.979598 165.64906,43.292887 164.598,42.875 C 164.91529,45.99083 165.43483,48.627713 165.797,51.515 C 174.867,54.725 188.888,55.065 198.438,56.315 C 196.508,59.185 195.388,62.865 192.917,65.195 C 185.197,62.875 174.707,63.225 167.718,65.915 C 168.4772,71.416457 169.22966,77.772085 169.877,82.475 C 178.037,83.515 186.316,84.435 193.157,86.795 C 196.447,87.265 199.777,87.695 202.277,88.955 C 200.896,91.415 200.737,95.095 198.917,97.115 C 195.606,97.115 193.207,98.145 190.518,99.275 C 184.518,101.805 177.619,104.135 172.279,106.955 C 172.949,121.846 176.218,140.894 173.478,155.675 C 173.018,158.154 172.207,161.686 170.119,163.115 C 170.268,151.773 169.659,140.314 168.68,129.755 C 167.76296,122.98661 167.33404,116.15928 165.92529,109.47354 C 162.44629,111.03354 158.089,112.445 155.239,114.635 C 156.539,118.445 157.499,123.545 156.919,127.835 C 156.81855,128.31367 156.80524,128.48773 156.8033,128.76985 C 158.15762,127.22038 159.28747,126.12492 161.72,126.154 C 163.18,128.273 162.65,131.404 162.199,134.075 C 161.589,137.675 160.058,142.154 159.558,145.353 C 159.037,148.724 158.869,153.144 159.558,156.154 C 160.377,159.715 163.707,163.835 166.037,164.795 C 169.226,166.115 174.087,165.205 176.356,163.835 C 181.657,160.635 184.556,153.415 184.997,145.596 C 184.48446,138.31921 183.29536,130.5763 180.917,123.755 C 181.93084,120.86518 183.57198,118.56232 185.478,115.595 C 187.54113,120.665 188.318,125.116 189.318,130.715 C 190.459,137.096 190.508,145.575 191.478,152.315 C 191.909,155.305 197.619,160.985 201.079,161.917 C 204.898,162.946 208.289,161.565 210.199,160.235 C 214.369,157.337 210.499,151.846 208.76,147.037 C 206.37778,140.38272 203.99421,133.74849 202.9713,126.75358 C 202.68303,125.04887 202.20018,123.65042 200.839,122.558 C 202.409,120.448 202.579,116.937 204.199,114.877 C 207.539,119.537 211.539,123.537 213.558,129.517 C 212.558,130.127 211.297,128.087 209.957,129.038 C 211.6782,138.8151 213.867,139.947 215.478,145.838 C 216.598,149.958 216.449,155.728 215.478,160.718 C 214.008,168.228 208.417,173.388 199.398,171.519 C 192.499,170.088 188.858,163.168 186.199,157.12 C 183.51474,163.0765 181.72778,169.11562 175.877,173.201 C 171.33537,175.74973 165.04034,175.08366 162.676,173.201 C 154.915,168.1 154.405,154.391 156.915,143.44 C 157.38109,141.14512 157.74257,139.61692 157.396,137.92 C 155.976,137.859 155.045,139.811 154.516,141.279 C 152.787,146.058 152.266,152.58 151.396,158.558 C 150.537,164.478 147.867,173.468 144.917,175.599 C 138.558,180.199 133.7427,171.1039 132.50064,168.09436 C 123.10964,173.46536 110.75303,178.03648 101.957,189.04 C 100.678,190.449 99.077,191.769 98.356,192.88 C 97.466,194.25 97.877,195.34 97.636,196.96 C 96.516,204.62 94.146,215.37 101.955,216.88 C 104.676,217.12 107.575,216.62 109.155,215.92 C 112.795,214.3 116.775,210.981 119.955,208 C 130.165,198.409 137.886,184.42 151.155,178.96 C 154.955,177.818 161.615,177.398 165.314,178.96 C 166.195,178.159 166.253,176.54 167.955,176.561 C 172.756,182.96 181.92349,187.721 193.17349,186.88 C 191.18791,184.07829 189.13812,180.03754 186.915,176.318 C 185.795,175.15071 184.936,174.939 184.275,173.92 C 185.174,171.3 185.434,168.04 186.195,165.279 C 190.17158,169.38352 194.40383,173.83177 198.676,177.279 C 197.676,178.08 195.966,176.67 195.316,177.758 C 197.36303,180.97966 198.7172,183.28468 200.117,185.679 C 200.77572,186.80573 204.707,184.628 206.837,183.758 C 212.398,181.498 217.697,177.939 221.237,174.157 C 239.69941,154.8184 241.29573,102.21806 221.957,69.517 C 213.518,53.567 202.407,42.107 189.077,31.837 C 172.12427,19.627663 152.41442,11.931561 131.716,10.237 C 118.745,9.587 93.075,13.357 91.875,14.317 C 62.855,19.557 38.155,44.157 32.355,53.437 C 23.115728,66.042746 16.436625,79.661103 12.195,94.717 C 11.255,98.447 10.125,101.907 9.555,105.757 C 6.635,125.467 9.725,146.377 14.595,160.717 C 21.485,178.017 31.704,194.177 47.475,205.837 C 69.990178,223.15158 98.211188,234.54573 124.276,230.077 C 131.46122,228.80778 143.05276,223.81645 151.397,219.276 C 151.397,220.635 151.397,221.997 151.397,223.356 C 152.677,226.207 156.836,227.077 160.038,225.997 C 163.187,224.927 167.559,221.017 168.918,217.837 C 170.179,214.898 169.107,208.357 173.479,210.398 C 172.849,214.467 174.91,217.669 178.04,217.837 C 181.62,218.026 184.0792,215.87303 185,212.316 C 185.86609,208.85871 183.88729,202.33966 186.681,201.998 C 187.66026,201.87824 188.21,204.968 189.321,206.078 C 190.172,206.928 190.931,206.708 191.481,207.758 C 194.641,209.098 199.821,209.268 202.521,207.758 C 206.042,205.788 202.84,202.768 201.321,200.798 C 200.002,199.098 199.422,198.22966 197.721,196.479 C 192.56271,197.41317 187.53291,196.7392 182.84,196.479 C 183.021,200.309 183.111,206.348 179.721,208 C 170.992,205.448 165.84,199.319 164.361,189.521 C 161.891,188.09 156.082,187.8 152.601,188.32 C 143.52004,190.92319 136.76751,198.96528 131.002,206.082 C 127.002,210.332 122.901,214.661 118.763,218.32 C 116.573,220.26 113.933,222.39 111.323,223.361 C 102.134,226.771 95.513,220.82 94.284,213.042 C 93.823,210.143 93.914,206.563 94.284,203.922 C 94.613,201.602 95.332798,199.28954 95.483,197.201 C 92.79883,200.6702 90.803,203.861 87.803,206.32 C 85.533,208.178 82.233,209.928 78.923,210.398 z M 245.663,140.799 C 243.30626,154.08519 239.49545,167.2896 231.503,178.478 C 225.304,186.068 216.783,191.357 207.024,195.517 C 208.104,200.347 210.644,207.908 208.463,213.997 C 206.644,215.808 205.173,217.946 202.224,218.315 C 197.694,218.885 193.354,215.957 190.224,214.475 C 189.324,220.835 186.623,228.996 178.944,228.395 C 175.665,228.135 174.774,225.957 172.465,224.315 C 170.665,225.856 170.096,228.805 168.385,231.037 C 165.986,234.167 160.066,238.677 153.986,236.315 C 151.087,235.186 149.896,232.395 148.707,229.117 C 123.75219,243.01429 96.654614,240.16485 79.348,233.436 C 71.627,230.635 64.177,227.165 57.268,223.117 C 39.226399,212.45678 23.925696,197.90708 14.068,179.437 C 8.9151674,169.69375 4.9309626,159.1982 2.309,148.478 C -1.202,131.369 -0.561,111.217 3.269,93.038 C 5.418,88.068 6.239,82.808 8.309,77.918 C 14.229,63.968 21.779,51.808 31.588,40.958 C 37.818,34.068 44.899,27.238 52.708,21.998 C 68.040679,11.491237 84.997683,4.5529444 103.348,1.838 C 129.94598,-1.835861 145.50901,0.92128163 168.388,8.078 C 198.56692,21.17361 221.08644,43.443679 236.068,73.118 C 245.91066,94.865697 247.84106,117.25467 245.663,140.799 z M 180.923,95.199 C 177.03094,93.579202 174.49274,93.607543 171.44346,92.79317 C 171.44031,94.665104 171.68179,95.88626 171.804,98.079 C 174.843,97.119 178.203,96.479 180.923,95.199 z M 165.083,100.958 C 164.55717,97.235085 164.50326,95.104032 163.644,91.838 C 155.56223,90.569166 149.04278,89.716233 140.10024,89.986233 C 140.29614,93.25635 141.0055,99.021657 141.1213,102.22693 C 144.00679,104.6057 145.62256,105.82363 147.56891,108.27654 C 153.72491,106.03754 159.062,103.338 165.083,100.958 z M 162.684,81.039 C 161.93849,77.784411 162.02652,74.53387 161.02057,67.957542 C 154.79957,69.867542 144.23791,73.86317 137.96209,76.354628 C 138.05209,77.464628 138.375,78.949 138.684,79.839 C 146.293,79.599 155.394,80.979 162.684,81.039 z M 159.083,59.319457 C 152.684,57.369457 146.07512,55.603628 139.644,53.677 C 138.745,53.977 138.804,55.237 137.963,55.597 C 137.583,55.007 136.16154,55.01117 135.68254,55.11117 C 136.32254,58.18117 136.88274,63.938255 137.484,67.837 C 144.57749,65.364338 152.15167,62.519683 159.083,59.319457 z M 151.163,141.277 C 151.97827,137.17341 154.14414,133.24339 156.03797,129.70654 C 155.93282,129.57896 155.54368,129.57873 154.878,129.56376 C 150.75022,128.5073 148.043,128.236 146.123,125.196 C 145.184,123.707 145.344,121.696 144.203,119.916 C 143.753,119.946 143.402,120.076 143.243,120.395 C 144.45692,129.8833 145.45466,139.38865 144.682,148.957 C 143.81736,154.06037 142.45047,156.63846 140.602,160.235 C 139.961,161.506 137.44657,164.6601 136.283,165.756 C 136.87956,167.30309 139.222,169.286 142.283,169.116 C 147.84053,165.56095 148.72714,157.9194 149.724,151.836 C 150.293,148.289 150.373,144.619 151.163,141.277 z M 140.604,149.439 C 140.785,146.5 140.224,142.159 139.883,138.398 C 139.29619,133.24544 139.10378,128.02439 137.85029,122.97536 C 137.77029,122.97536 137.083,123.279 137.003,123.279 C 108.854,137.218 92.572,163.008 67.403,179.92 C 65.632,184.899 60.473,205.92 77.963,202.96 C 83.673,201.989 88.623,195.1 92.362,190.72 C 96.472,185.901 100.091,180.04 104.602,176.321 C 108.722,172.922 113.052,170.8 117.081,168.401 C 121.251,165.922 125.722,164.01 130.281,160.962 C 130.19,158.122 129.56,154.292 129.56,150.882 C 129.56,147.56669 129.93851,144.22021 130.58898,141.88821 C 130.67524,141.57896 131.42651,141.65055 131.72,141.523 C 131.01,147.552 131.741,153.902 132.919,158.802 C 136.623,157.228 140.312,154.269 140.604,149.439 z M 129.322,118.238 C 131.64317,116.58053 135.15623,114.81588 136.64963,113.85496 C 136.69525,112.77072 136.12708,111.07072 135.91863,109.59509 C 133.77763,107.92509 131.383,107.278 128.602,105.998 C 121.711,102.808 116.892,99.828 119.001,89.198 C 121.29096,83.603985 126.77925,81.478107 132.19909,80.08966 C 131.75383,78.966947 131.99596,78.421077 131.71787,77.994519 C 127.54787,79.420349 118.921,81.858 114.682,82.958 C 116.062,94.938 118.121,114.058 115.161,125.198 C 114.89,126.209 114.39,128.039 113.001,128.079 C 113.062,112.728 110.621,97.819 108.921,83.438 C 103.312,83.358 97.751,81.978 93.802,81.038 C 94.769219,87.598526 95.73617,94.298 95.482,102.638 C 94.432,105.268 93.203,107.718 92.362,110.558 C 86.673,121.508 73.552,124.338 63.562,130.718 C 56.461,135.248 50.832,140.398 45.322,146.318 C 43.602,148.159 41.002,149.939 39.802,152.08 C 38.991,153.519 37.251,158 37.031,158.93 C 36.101,162.83 35.461,167.42 36.681,171.52 C 39.37,178.582 49.701,178.082 57.08,175.84 C 78.02,168.231 90.851,148.159 107.48,134.8 C 114.493,129.168 121.604,123.758 129.322,118.238 z M 134.78227,99.828474 C 134.36644,96.155559 133.91526,93.247745 133.404,90.399 C 131.194,91.049 123.984,90.549 123.564,93.039 C 123.335,94.379 126.274,96.269 127.404,96.879 C 129.793,98.167 132.32227,99.436474 134.78227,99.828474 z M 90.923,105.278 C 91.854,102.208 90.524,98.00383 89.724,95.678 C 87.344,96.898 87.944,101.098 85.644,102.398 C 81.264,99.288 78.414,96.868 71.724,96.878 C 59.734,96.908 51.974,105.068 45.564,111.038 C 39.423,116.768 33.644,123.727 23.003,123.758 C 15.434,130.788 13.373,153.529 29.243,149.918 C 40.776322,144.4354 47.154783,132.59511 57.564,125.436 C 62.423,122.447 67.664,120.287 72.684,117.756 C 77.873,115.136 83.554,113.006 87.564,109.596 C 88.623,108.688 90.783,105.729 90.923,105.278 z M 89.483,93.999 C 88.660771,88.476876 88.090165,82.858109 87.23272,77.207025 C 86.942707,76.421514 86.18623,75.957122 85.163,75.039 C 83.112712,73.19932 79.283,66.519 76.283,66.639 C 74.054,66.729 68.853,72.379 69.563,80.079 C 71.492849,88.558958 83.552177,89.090104 89.483,93.999 z M 222.442,116.318 C 224.392,132.968 227.44356,153.1396 222.203,166.478 C 220.31437,136.23006 215.56102,106.24881 211.19534,76.285506 C 210.5956,72.612353 209.74839,69.202475 208.283,66.399 C 209.804,63.599 211.093,60.569 212.843,57.999 C 216.043,65.089 217.99533,71.3937 221.484,80.559 C 220.484,81.659 218.60417,77.748399 217.02417,77.848399 C 217.71459,88.139258 220.26104,99.357526 221.484,109.599 C 221.703,111.758 222.184,114.048 222.442,116.318 z M 222.203,198.878 C 221.102,201.776 219.633,204.308 217.883,206.558 C 214.593,205.378 212.394,203.088 209.724,201.279 C 210.883,198.279 212.873,196.109 214.043,193.12 C 217.232,194.568 219.993,196.448 222.203,198.878 z M 110.844,122.079 C 111.684,125.389 107.873,128.187 106.524,130.719 C 103.423,129.18 100.923,127.039 98.125,125.198 C 99.314,121.829 101.354,119.308 103.165,116.558 C 104.272,117.647 110.394,120.298 110.844,122.079 z M 107.724,106.238 C 108.114,109.148 104.535,111.808 103.404,114.398 C 100.224,112.938 97.755,110.768 95.005,108.878 C 95.915,105.548 98.146,103.538 99.324,100.478 C 101.243,101.039 107.463,104.349 107.724,106.238 z M 56.123,148.958 C 58.883,151.078 62.703,152.138 64.283,155.437 C 63.033,158.427 61.554,161.187 59.723,163.597 C 57.063,161.457 53.752,159.967 51.323,157.597 C 52.403,155.148 54.523,151.678 56.123,148.958 z"
   sodipodi:nodetypes="cccssccccscccssscccccccccccccsccccccccccccccccccccccccccccscccccccscccscccsssccccccccccccccccccccscccccccccccccsccccccccsccccccccscsscsccccccccccccscccccscccsccccccccccccccccccccccccccccccccccccccsccccccccccccccccccsscccccccccccccccccccssccccccssccccccccccccccssccccccccccccccccccccccccccccccc" />
</svg>