<?xml version="1.0" encoding="utf-8"?>
<!-- Generator: Adobe Illustrator 23.0.5, SVG Export Plug-In . SVG Version: 6.00 Build 0)  -->
<svg version="1.1" xmlns="http://www.w3.org/2000/svg" xmlns:xlink="http://www.w3.org/1999/xlink" x="0px" y="0px"
	 viewBox="0 0 256 256" style="enable-background:new 0 0 256 256;" xml:space="preserve">
<style type="text/css">
	.st0{clip-path:url(#SVGID_2_);}
	.st1{fill:#239F40;}
	.st2{fill:#FFFFFF;}
	.st3{fill:#DA0000;}
	.st4{fill:none;stroke:#FFFFFF;stroke-width:1.7171;stroke-linecap:square;}
	.st5{display:none;}
	.st6{display:inline;fill:url(#SVGID_3_);}
	.st7{opacity:0.1;}
	.st8{fill:#231F20;}
</style>
<g id="Countryflags.com">
	<g>
		<defs>
			<circle id="SVGID_1_" cx="128" cy="128" r="128"/>
		</defs>
		<clipPath id="SVGID_2_">
			<use xlink:href="#SVGID_1_"  style="overflow:visible;"/>
		</clipPath>
		<g class="st0">
			<rect id="_x35_1" x="-95.3" class="st1" width="446.5" height="256"/>
			<rect id="_x35_0" x="-95.3" y="85.3" class="st2" width="446.5" height="85.3"/>
			<rect id="_x34_9" x="-95.3" y="170.7" class="st3" width="446.5" height="85.3"/>
			<path id="_x34_8" class="st4" d="M110.1,72.4H134 M110.1,80.4v-4h7.9v4h7.9v-4h-4 M134,80.4h-4v-4h7.9v-4 M137.9,76.4v4h7.9v-8
				 M141.9,72.4v8 M114.1,80.4L114.1,80.4"/>
			<path id="_x34_7" class="st4" d="M110.1,84.8H126 M130,84.8h15.9"/>
			<path id="_x34_6" class="st4" d="M110.1,175.6H134 M110.1,183.6v-4h7.9v4h7.9v-4h-4 M134,183.6h-4v-4h7.9v-4 M137.9,179.6v4h7.9
				v-8 M141.9,175.6v8 M114.1,183.6L114.1,183.6"/>
			<path id="_x34_5" class="st4" d="M110.1,171.2H126 M130,171.2h15.9"/>
			<path id="_x34_4" class="st4" d="M149.8,72.4h23.8 M149.8,80.4v-4h7.9v4h7.9v-4h-4 M173.6,80.4h-4v-4h7.9v-4 M177.6,76.4v4h7.9
				v-8 M181.6,72.4v8 M153.8,80.4L153.8,80.4"/>
			<path id="_x34_3" class="st4" d="M149.8,84.8h15.9 M169.7,84.8h15.9"/>
			<path id="_x34_2" class="st4" d="M149.8,175.6h23.8 M149.8,183.6v-4h7.9v4h7.9v-4h-4 M173.6,183.6h-4v-4h7.9v-4 M177.6,179.6v4
				h7.9v-8 M181.6,175.6v8 M153.8,183.6L153.8,183.6"/>
			<path id="_x34_1" class="st4" d="M149.8,171.2h15.9 M169.7,171.2h15.9"/>
			<path id="_x34_0" class="st4" d="M30.8,72.4h23.8 M30.8,80.4v-4h7.9v4h7.9v-4h-4 M54.6,80.4h-4v-4h7.9v-4 M58.5,76.4v4h7.9v-8
				 M62.5,72.4v8 M34.7,80.4L34.7,80.4"/>
			<path id="_x33_9" class="st4" d="M30.8,84.8h15.9 M50.6,84.8h15.9"/>
			<path id="_x33_8" class="st4" d="M30.8,175.6h23.8 M30.8,183.6v-4h7.9v4h7.9v-4h-4 M54.6,183.6h-4v-4h7.9v-4 M58.5,179.6v4h7.9
				v-8 M62.5,175.6v8 M34.7,183.6L34.7,183.6"/>
			<path id="_x33_7" class="st4" d="M30.8,171.2h15.9 M50.6,171.2h15.9"/>
			<path id="_x33_6" class="st4" d="M70.4,72.4h23.8 M70.4,80.4v-4h7.9v4h7.9v-4h-4 M94.3,80.4h-4v-4h7.9v-4 M98.2,76.4v4h7.9v-8
				 M102.2,72.4v8 M74.4,80.4L74.4,80.4"/>
			<path id="_x33_5" class="st4" d="M70.4,84.8h15.9 M90.3,84.8h15.9"/>
			<path id="_x33_4" class="st4" d="M70.4,175.6h23.8 M70.4,183.6v-4h7.9v4h7.9v-4h-4 M94.3,183.6h-4v-4h7.9v-4 M98.2,179.6v4h7.9
				v-8 M102.2,175.6v8 M74.4,183.6L74.4,183.6"/>
			<path id="_x33_3" class="st4" d="M70.4,171.2h15.9 M90.3,171.2h15.9"/>
			<path id="_x33_2" class="st4" d="M268.9,72.4h23.8 M268.9,80.4v-4h7.9v4h7.9v-4h-4 M292.7,80.4h-4v-4h7.9v-4 M296.7,76.4v4h7.9
				v-8 M300.7,72.4v8 M272.9,80.4L272.9,80.4"/>
			<path id="_x33_1" class="st4" d="M268.9,84.8h15.9 M288.7,84.8h15.9"/>
			<path id="_x33_0" class="st4" d="M268.9,175.6h23.8 M268.9,183.6v-4h7.9v4h7.9v-4h-4 M292.7,183.6h-4v-4h7.9v-4 M296.7,179.6v4
				h7.9v-8 M300.7,175.6v8 M272.9,183.6L272.9,183.6"/>
			<path id="_x32_9" class="st4" d="M268.9,171.2h15.9 M288.7,171.2h15.9"/>
			<path id="_x32_8" class="st4" d="M308.6,72.4h23.8 M308.6,80.4v-4h7.9v4h7.9v-4h-4 M332.4,80.4h-4v-4h7.9v-4 M336.4,76.4v4h7.9
				v-8 M340.3,72.4v8 M312.6,80.4L312.6,80.4"/>
			<path id="_x32_7" class="st4" d="M308.6,84.8h15.9 M328.4,84.8h15.9"/>
			<path id="_x32_6" class="st4" d="M308.6,175.6h23.8 M308.6,183.6v-4h7.9v4h7.9v-4h-4 M332.4,183.6h-4v-4h7.9v-4 M336.4,179.6v4
				h7.9v-8 M340.3,175.6v8 M312.6,183.6L312.6,183.6"/>
			<path id="_x32_5" class="st4" d="M308.6,171.2h15.9 M328.4,171.2h15.9"/>
			<path id="_x32_4" class="st4" d="M189.5,72.4h23.8 M189.5,80.4v-4h7.9v4h7.9v-4h-4 M213.3,80.4h-4v-4h7.9v-4 M217.3,76.4v4h7.9
				v-8 M221.3,72.4v8 M193.5,80.4L193.5,80.4"/>
			<path id="_x32_3" class="st4" d="M189.5,84.8h15.9 M209.4,84.8h15.9"/>
			<path id="_x32_2" class="st4" d="M189.5,175.6h23.8 M189.5,183.6v-4h7.9v4h7.9v-4h-4 M213.3,183.6h-4v-4h7.9v-4 M217.3,179.6v4
				h7.9v-8 M221.3,175.6v8 M193.5,183.6L193.5,183.6"/>
			<path id="_x32_1" class="st4" d="M189.5,171.2h15.9 M209.4,171.2h15.9"/>
			<path id="_x32_0" class="st4" d="M229.2,72.4H253 M229.2,80.4v-4h7.9v4h7.9v-4h-4 M253,80.4h-4v-4h7.9v-4 M257,76.4v4h7.9v-8
				 M261,72.4v8 M233.2,80.4L233.2,80.4"/>
			<path id="_x31_9" class="st4" d="M229.2,84.8h15.9 M249.1,84.8h15.9"/>
			<path id="_x31_8" class="st4" d="M229.2,175.6H253 M229.2,183.6v-4h7.9v4h7.9v-4h-4 M253,183.6h-4v-4h7.9v-4 M257,179.6v4h7.9v-8
				 M261,175.6v8 M233.2,183.6L233.2,183.6"/>
			<path id="_x31_7" class="st4" d="M229.2,171.2h15.9 M249.1,171.2h15.9"/>
			<path id="_x31_6" class="st4" d="M-8.9,72.4h23.8 M-8.9,80.4v-4H-1v4h7.9v-4H3 M14.9,80.4h-4v-4h7.9v-4 M18.9,76.4v4h7.9v-8
				 M22.8,72.4v8 M-5,80.4L-5,80.4"/>
			<path id="_x31_5" class="st4" d="M-8.9,84.8H6.9 M10.9,84.8h15.9"/>
			<path id="_x31_4" class="st4" d="M-8.9,175.6h23.8 M-8.9,183.6v-4H-1v4h7.9v-4H3 M14.9,183.6h-4v-4h7.9v-4 M18.9,179.6v4h7.9v-8
				 M22.8,175.6v8 M-5,183.6L-5,183.6"/>
			<path id="_x31_3" class="st4" d="M-8.9,171.2H6.9 M10.9,171.2h15.9"/>
			<path id="_x31_2" class="st4" d="M-88.3,72.4h23.8 M-88.3,80.4v-4h7.9v4h7.9v-4h-4 M-64.5,80.4h-4v-4h7.9v-4 M-60.5,76.4v4h7.9
				v-8 M-56.6,72.4v8 M-84.3,80.4L-84.3,80.4"/>
			<path id="_x31_1" class="st4" d="M-88.3,84.8h15.9 M-68.5,84.8h15.9"/>
			<path id="_x31_0" class="st4" d="M-88.3,175.6h23.8 M-88.3,183.6v-4h7.9v4h7.9v-4h-4 M-64.5,183.6h-4v-4h7.9v-4 M-60.5,179.6v4
				h7.9v-8 M-56.6,175.6v8 M-84.3,183.6L-84.3,183.6"/>
			<path id="_x39_" class="st4" d="M-88.3,171.2h15.9 M-68.5,171.2h15.9"/>
			<path id="_x38_" class="st4" d="M-48.6,72.4h23.8 M-48.6,80.4v-4h7.9v4h7.9v-4h-4 M-24.8,80.4h-4v-4h7.9v-4 M-20.8,76.4v4h7.9v-8
				 M-16.9,72.4v8 M-44.7,80.4L-44.7,80.4"/>
			<path id="_x37_" class="st4" d="M-48.6,84.8h15.9 M-28.8,84.8h15.9"/>
			<path id="_x36_" class="st4" d="M-48.6,175.6h23.8 M-48.6,183.6v-4h7.9v4h7.9v-4h-4 M-24.8,183.6h-4v-4h7.9v-4 M-20.8,179.6v4
				h7.9v-8 M-16.9,175.6v8 M-44.7,183.6L-44.7,183.6"/>
			<path id="_x35_" class="st4" d="M-48.6,171.2h15.9 M-28.8,171.2h15.9"/>
			<path id="_x34_" class="st3" d="M141,105.1c0,0,23.1,18.1,6.1,44.1C163.1,139.5,164.5,112.5,141,105.1z"/>
			<path id="_x33__1_" class="st3" d="M128,102.6c-3.7,4.2-10,0-7.8-4.5c3.8,6.8,7.8,1.3,7.8,1.3s4,5.5,7.8-1.3
				C138,102.6,131.7,106.7,128,102.6L128,102.6z"/>
			<path id="_x32__1_" class="st3" d="M128,159l-2.6-3.5c0,0-6.2,2.1-14.4-0.8c6.7,0,10.5-1.2,11.8-1.9c0,0-15.2-8.2-14.9-24.9
				c0.9-16.9,9.9-22.1,9.9-22.1s-16,23.4,7.5,42.9l-1-24.1v-17.7c1.3-0.3,3.8-3.1,3.8-3.1s2.4,2.8,3.8,3.1v17.7l-1,24.1
				c23.5-19.5,7.5-42.9,7.5-42.9s9,5.1,9.9,22.1c0.3,16.7-14.9,24.9-14.9,24.9c1.4,0.7,5.1,1.9,11.8,1.9c-8.2,2.9-14.4,0.8-14.4,0.8
				L128,159L128,159z"/>
			<path id="_x31_" class="st3" d="M115,105.1c0,0-23.1,18.1-6.1,44.1C92.9,139.5,91.5,112.5,115,105.1z"/>
		</g>
	</g>
</g>
<g id="Light" class="st5">
	<linearGradient id="SVGID_3_" gradientUnits="userSpaceOnUse" x1="48.4505" y1="207.5495" x2="207.5495" y2="48.4505">
		<stop  offset="0" style="stop-color:#FFFFFF;stop-opacity:0.1"/>
		<stop  offset="0.8361" style="stop-color:#FFFFFF;stop-opacity:0.2725"/>
		<stop  offset="0.9694" style="stop-color:#FFFFFF;stop-opacity:0.3"/>
		<stop  offset="1" style="stop-color:#FFFFFF;stop-opacity:0.2"/>
	</linearGradient>
	<circle class="st6" cx="128" cy="128" r="112.5"/>
</g>
<g id="Edge">
	<g id="XMLID_1_" class="st7">
		<g>
			<path class="st8" d="M128,0c70.7,0,128,57.3,128,128s-57.3,128-128,128S0,198.7,0,128S57.3,0,128,0z M240.5,128
				c0-62.1-50.4-112.5-112.5-112.5S15.5,65.9,15.5,128S65.9,240.5,128,240.5S240.5,190.1,240.5,128z"/>
		</g>
		<g>
		</g>
	</g>
</g>
</svg>
